<svg width="240" height="31" viewBox="0 0 240 31" fill="none" xmlns="http://www.w3.org/2000/svg">
<g clip-path="url(#clip0_16_38)">
<path d="M0.1303 30.439C-0.303305 29.3117 0.347102 28.0976 0.780706 27.0569C1.34439 25.8862 1.95144 24.8022 2.6452 23.7182C5.85388 18.7317 11.0571 15.1762 16.6506 13.355C25.4094 10.58 33.9081 15.5231 41.6696 19.0353C45.7888 21.1166 49.7346 22.1138 54.3308 20.9865C63.0463 18.4716 70.0707 12.4011 78.0056 8.23851C86.2441 3.38214 94.7428 5.63688 102.678 9.79948C106.927 11.8808 110.96 14.6125 115.729 15.3496C121.756 16.1735 126.656 12.0976 132.25 7.97835C137.323 4.24935 143.003 0.47699 150.548 0.52035C156.011 0.390269 161.474 1.82116 166.244 4.50951C169.886 6.33065 173.008 9.14908 176.867 10.4933C179.079 11.3171 181.464 10.7534 183.415 9.58268C187.577 7.11114 191.263 3.81574 195.729 1.90788C205.615 -2.42816 215.328 1.43092 223.957 6.72089C227.512 8.75883 231.198 10.6233 234.927 12.3577C235.881 12.7914 236.878 13.1382 237.832 13.4851C239.437 14.0488 240.347 15.8699 239.957 17.5176C239.567 19.2954 237.572 20.5962 235.794 20.0759C233.756 19.4689 231.718 18.8618 229.767 18.038C224.044 15.6965 218.797 12.4445 213.29 9.71276C209.388 7.84826 204.965 6.80761 200.672 7.89162C193.605 9.79948 189.355 16.3903 182.374 18.2981C175.783 19.9458 170.84 16.7805 165.55 13.6152C161.214 11.0136 156.661 8.45531 150.721 8.45531C142.222 8.19515 136.065 14.9594 129.301 19.122C121.193 24.4553 112.694 23.8916 104.282 19.5556C99.0788 17.1708 94.049 13.6152 88.1953 13.1816C85.8105 13.0949 83.5558 13.9187 81.4745 15.0461C77.3986 17.3442 73.5829 19.9892 69.5937 22.374C63.0029 26.4932 55.5016 30.3957 47.4799 29.3984C38.5476 28.2277 31.6533 21.2466 22.8945 19.4255C18.2116 18.6017 13.6154 20.8564 9.79968 23.4147C7.37149 25.2358 5.11675 27.2304 3.03545 29.355C2.51512 29.832 2.08152 30.439 1.47447 30.8293C1.30103 30.916 1.12759 30.9594 0.954148 30.9594C0.607264 30.9594 0.303742 30.7859 0.1303 30.439Z" fill="#FDDB3A"/>
</g>
<defs>
<clipPath id="clip0_16_38">
<rect width="240" height="30.9594" fill="white"/>
</clipPath>
</defs>
</svg>
