<svg width="50" height="50" viewBox="0 0 50 50" fill="none" xmlns="http://www.w3.org/2000/svg">
<g clip-path="url(#clip0_130_64)">
<path d="M19.7277 35.0393C19.5388 35.0393 19.3486 34.9743 19.1933 34.8421L13.8517 30.2937C13.6675 30.1366 13.5615 29.9072 13.5615 29.6649C13.5615 29.4231 13.6679 29.1937 13.8517 29.0366L19.1933 24.4882C19.5402 24.1925 20.0612 24.2344 20.3569 24.5813C20.6522 24.9286 20.6107 25.4496 20.2634 25.7449L15.6602 29.6649L20.2634 33.585C20.6107 33.8807 20.6522 34.4017 20.3569 34.7486C20.1934 34.9407 19.9612 35.0393 19.7277 35.0393Z" fill="#291953"/>
<path d="M30.2722 35.0393C30.0386 35.0393 29.8065 34.9407 29.6434 34.7486C29.3477 34.4017 29.3896 33.8807 29.7364 33.585L34.3396 29.6649L29.7364 25.7449C29.3896 25.4496 29.3477 24.9286 29.6434 24.5813C29.9387 24.2344 30.4601 24.1925 30.8065 24.4882L36.1481 29.0366C36.3324 29.1937 36.4383 29.4231 36.4383 29.6649C36.4383 29.9072 36.3324 30.1366 36.1481 30.2937L30.8065 34.8421C30.6513 34.9743 30.461 35.0393 30.2722 35.0393Z" fill="#291953"/>
<path d="M23.109 38.4508C23.0523 38.4508 22.9952 38.4448 22.9376 38.4328C22.4917 38.3388 22.2061 37.9008 22.3001 37.4549L25.6292 21.6488C25.7232 21.2029 26.1608 20.9173 26.6071 21.0113C27.053 21.1053 27.3386 21.5429 27.2447 21.9892L23.9156 37.7953C23.8336 38.1841 23.4909 38.4508 23.109 38.4508Z" fill="#291953"/>
<path d="M44.4576 47.062H5.54245C2.48655 47.062 0 44.5759 0 41.5196V8.49057C0 5.43467 2.48655 2.94812 5.54245 2.94812H44.4576C47.5135 2.94812 50 5.43467 50 8.49057V41.5196C50 44.5759 47.5135 47.062 44.4576 47.062ZM5.54245 4.59906C3.39678 4.59906 1.65094 6.3449 1.65094 8.49057V41.5196C1.65094 43.6652 3.39678 45.4111 5.54245 45.4111H44.4576C46.6032 45.4111 48.3491 43.6652 48.3491 41.5196V8.49057C48.3491 6.3449 46.6032 4.59906 44.4576 4.59906H5.54245Z" fill="#291953"/>
<path d="M49.1745 16.1663H0.825472C0.369435 16.1663 0 15.7969 0 15.3409C0 14.8853 0.369435 14.5154 0.825472 14.5154H49.1745C49.6306 14.5154 50 14.8853 50 15.3409C50 15.7969 49.6306 16.1663 49.1745 16.1663Z" fill="#291953"/>
<path d="M14.1035 12.2163C12.6635 12.2163 11.4912 11.044 11.4912 9.604C11.4912 8.16357 12.6635 6.9917 14.1035 6.9917C15.5439 6.9917 16.7158 8.16357 16.7158 9.604C16.7158 11.044 15.5439 12.2163 14.1035 12.2163ZM14.1035 8.64264C13.5738 8.64264 13.1422 9.0738 13.1422 9.604C13.1422 10.1342 13.5738 10.5654 14.1035 10.5654C14.6337 10.5654 15.0649 10.1342 15.0649 9.604C15.0649 9.0738 14.6337 8.64264 14.1035 8.64264Z" fill="#291953"/>
<path d="M6.07813 12.1909C4.6377 12.1909 3.46582 11.019 3.46582 9.57861C3.46582 8.13818 4.6377 6.96631 6.07813 6.96631C7.51856 6.96631 8.69043 8.13818 8.69043 9.57861C8.69043 11.019 7.51856 12.1909 6.07813 12.1909ZM6.07813 8.61725C5.54839 8.61725 5.11676 9.04887 5.11676 9.57861C5.11676 10.1088 5.54839 10.54 6.07813 10.54C6.60833 10.54 7.03949 10.1088 7.03949 9.57861C7.03949 9.04887 6.60833 8.61725 6.07813 8.61725Z" fill="#291953"/>
<path d="M22.1304 12.2411C20.6904 12.2411 19.5186 11.0692 19.5186 9.62881C19.5186 8.18884 20.6904 7.01697 22.1304 7.01697C23.5708 7.01697 24.7427 8.18884 24.7427 9.62881C24.7427 11.0692 23.5708 12.2411 22.1304 12.2411ZM22.1304 8.66745C21.6007 8.66745 21.1695 9.09861 21.1695 9.62881C21.1695 10.159 21.6007 10.5902 22.1304 10.5902C22.6606 10.5902 23.0918 10.159 23.0918 9.62881C23.0918 9.09861 22.6606 8.66745 22.1304 8.66745Z" fill="#291953"/>
</g>
<defs>
<clipPath id="clip0_130_64">
<rect width="50" height="50" fill="white"/>
</clipPath>
</defs>
</svg>
