<svg width="50" height="50" viewBox="0 0 50 50" fill="none" xmlns="http://www.w3.org/2000/svg">
<g clip-path="url(#clip0_135_222)">
<path d="M21.875 40.625H3.90625C2.87063 40.6238 1.87778 40.2118 1.14548 39.4795C0.413189 38.7472 0.00124051 37.7544 0 36.7188L0 3.90625C0.00124051 2.87063 0.413189 1.87778 1.14548 1.14548C1.87778 0.413189 2.87063 0.00124051 3.90625 0L5.46875 0V1.5625H3.90625C3.28465 1.5625 2.68851 1.80943 2.24897 2.24897C1.80943 2.68851 1.5625 3.28465 1.5625 3.90625V36.7188C1.5625 37.3404 1.80943 37.9365 2.24897 38.376C2.68851 38.8156 3.28465 39.0625 3.90625 39.0625H21.875V40.625Z" fill="#291953"/>
<path d="M7.03125 0H8.59453V1.5625H7.03125V0Z" fill="#291953"/>
<path d="M46.0938 40.625V39.0625C46.7154 39.0625 47.3115 38.8156 47.751 38.376C48.1906 37.9365 48.4375 37.3404 48.4375 36.7188V3.90625C48.4375 3.28465 48.1906 2.68851 47.751 2.24897C47.3115 1.80943 46.7154 1.5625 46.0938 1.5625H10.1562V0H46.0938C47.1294 0.00124051 48.1222 0.413189 48.8545 1.14548C49.5868 1.87778 49.9988 2.87063 50 3.90625V36.7188C49.9988 37.7544 49.5868 38.7472 48.8545 39.4795C48.1222 40.2118 47.1294 40.6238 46.0938 40.625Z" fill="#291953"/>
<path d="M14.8677 42.7954L15.6504 39.6709L17.166 40.0506L16.3833 43.1751L14.8677 42.7954Z" fill="#291953"/>
<path d="M21.875 46.875H14.0625C13.8553 46.875 13.6566 46.7927 13.5101 46.6462C13.3636 46.4997 13.2812 46.301 13.2812 46.0938V44.5312C13.2812 43.9096 13.5282 43.3135 13.9677 42.874C14.4073 42.4344 15.0034 42.1875 15.625 42.1875H21.875V43.75H15.625C15.4178 43.75 15.2191 43.8323 15.0726 43.9788C14.9261 44.1253 14.8438 44.324 14.8438 44.5312V45.3125H21.875V46.875Z" fill="#291953"/>
<path d="M0.78125 32.8125H21.875V34.375H0.78125V32.8125Z" fill="#291953"/>
<path d="M3.125 35.9375H4.6875V37.5H3.125V35.9375Z" fill="#291953"/>
<path d="M6.25 35.9375H10.9375V37.5H6.25V35.9375Z" fill="#291953"/>
<path d="M42.9688 50H27.3438C26.3081 49.9988 25.3153 49.5868 24.583 48.8545C23.8507 48.1222 23.4387 47.1294 23.4375 46.0938V14.8438C23.4387 13.8081 23.8507 12.8153 24.583 12.083C25.3153 11.3507 26.3081 10.9387 27.3438 10.9375H42.9688C44.0044 10.9387 44.9972 11.3507 45.7295 12.083C46.4618 12.8153 46.8738 13.8081 46.875 14.8438V46.0938C46.8738 47.1294 46.4618 48.1222 45.7295 48.8545C44.9972 49.5868 44.0044 49.9988 42.9688 50ZM27.3438 12.5C26.7221 12.5 26.126 12.7469 25.6865 13.1865C25.2469 13.626 25 14.2221 25 14.8438V46.0938C25 46.7154 25.2469 47.3115 25.6865 47.751C26.126 48.1906 26.7221 48.4375 27.3438 48.4375H42.9688C43.5904 48.4375 44.1865 48.1906 44.626 47.751C45.0656 47.3115 45.3125 46.7154 45.3125 46.0938V14.8438C45.3125 14.2221 45.0656 13.626 44.626 13.1865C44.1865 12.7469 43.5904 12.5 42.9688 12.5H27.3438Z" fill="#291953"/>
<path d="M39.0625 18.75H31.25C29.7859 18.75 29.1727 17.475 28.9789 16.4062H24.2188V14.8438H29.6875C29.8947 14.8438 30.0934 14.9261 30.2399 15.0726C30.3864 15.2191 30.4688 15.4178 30.4688 15.625C30.4688 15.6383 30.5125 17.1875 31.25 17.1875H39.0625C39.8 17.1875 39.8438 15.6383 39.8438 15.625C39.8438 15.4178 39.9261 15.2191 40.0726 15.0726C40.2191 14.9261 40.4178 14.8438 40.625 14.8438H46.0938V16.4062H41.3336C41.1398 17.475 40.5266 18.75 39.0625 18.75Z" fill="#291953"/>
<path d="M32.0312 14.0625H38.2812V15.625H32.0312V14.0625Z" fill="#291953"/>
<path d="M32.0312 46.0938H38.2812V47.6562H32.0312V46.0938Z" fill="#291953"/>
<path d="M24.2188 43.75H46.0938V45.3125H24.2188V43.75Z" fill="#291953"/>
<path d="M14.0625 21.875H10.9375C10.7303 21.875 10.5316 21.7927 10.3851 21.6462C10.2386 21.4997 10.1562 21.301 10.1562 21.0938V19.9484C9.72 19.811 9.29674 19.6353 8.89141 19.4234L8.08047 20.2344C7.93396 20.3808 7.73528 20.4631 7.52812 20.4631C7.32097 20.4631 7.12229 20.3808 6.97578 20.2344L4.76562 18.0242C4.61916 17.8777 4.53689 17.679 4.53689 17.4719C4.53689 17.2647 4.61916 17.066 4.76562 16.9195L5.57578 16.1086C5.36415 15.7032 5.18872 15.28 5.05156 14.8438H3.90625C3.69905 14.8438 3.50034 14.7614 3.35382 14.6149C3.20731 14.4684 3.125 14.2697 3.125 14.0625V10.9375C3.125 10.7303 3.20731 10.5316 3.35382 10.3851C3.50034 10.2386 3.69905 10.1562 3.90625 10.1562H5.05156C5.18898 9.72 5.36466 9.29674 5.57656 8.89141L4.76562 8.08047C4.61916 7.93396 4.53689 7.73528 4.53689 7.52812C4.53689 7.32097 4.61916 7.12229 4.76562 6.97578L6.97578 4.76562C7.12229 4.61916 7.32097 4.53689 7.52812 4.53689C7.73528 4.53689 7.93396 4.61916 8.08047 4.76562L8.89141 5.57578C9.29677 5.36415 9.72002 5.18872 10.1562 5.05156V3.90625C10.1562 3.69905 10.2386 3.50034 10.3851 3.35382C10.5316 3.20731 10.7303 3.125 10.9375 3.125H14.0625C14.2697 3.125 14.4684 3.20731 14.6149 3.35382C14.7614 3.50034 14.8438 3.69905 14.8438 3.90625V5.05156C15.28 5.18898 15.7033 5.36466 16.1086 5.57656L16.9195 4.76562C17.066 4.61916 17.2647 4.53689 17.4719 4.53689C17.679 4.53689 17.8777 4.61916 18.0242 4.76562L20.2344 6.97578C20.3808 7.12229 20.4631 7.32097 20.4631 7.52812C20.4631 7.73528 20.3808 7.93396 20.2344 8.08047L19.4242 8.89141C19.6359 9.29677 19.8113 9.72002 19.9484 10.1562H21.0938C21.301 10.1562 21.4997 10.2386 21.6462 10.3851C21.7927 10.5316 21.875 10.7303 21.875 10.9375V14.0625C21.875 14.2697 21.7927 14.4684 21.6462 14.6149C21.4997 14.7614 21.301 14.8438 21.0938 14.8438H19.9484C19.811 15.28 19.6353 15.7033 19.4234 16.1086L20.2344 16.9195C20.3808 17.066 20.4631 17.2647 20.4631 17.4719C20.4631 17.679 20.3808 17.8777 20.2344 18.0242L18.0242 20.2344C17.8777 20.3808 17.679 20.4631 17.4719 20.4631C17.2647 20.4631 17.066 20.3808 16.9195 20.2344L16.1086 19.4242C15.7032 19.6359 15.28 19.8113 14.8438 19.9484V21.0938C14.8438 21.301 14.7614 21.4997 14.6149 21.6462C14.4684 21.7927 14.2697 21.875 14.0625 21.875ZM11.7188 20.3125H13.2812V19.3516C13.2811 19.1744 13.3411 19.0024 13.4516 18.8638C13.562 18.7253 13.7163 18.6284 13.8891 18.5891C14.574 18.4333 15.2273 18.1619 15.8211 17.7867C15.971 17.6921 16.1487 17.6513 16.3249 17.6711C16.5011 17.6908 16.6653 17.7699 16.7906 17.8953L17.4719 18.5766L18.5766 17.4719L17.8953 16.7906C17.7699 16.6653 17.6908 16.5011 17.6711 16.3249C17.6513 16.1487 17.6921 15.971 17.7867 15.8211C18.1619 15.2273 18.4333 14.574 18.5891 13.8891C18.6284 13.7163 18.7253 13.562 18.8638 13.4516C19.0024 13.3411 19.1744 13.2811 19.3516 13.2812H20.3125V11.7188H19.3516C19.1744 11.7189 19.0024 11.6589 18.8638 11.5484C18.7253 11.438 18.6284 11.2837 18.5891 11.1109C18.4333 10.426 18.1619 9.77269 17.7867 9.17891C17.6921 9.02896 17.6513 8.8513 17.6711 8.67511C17.6908 8.49892 17.7699 8.33468 17.8953 8.20938L18.5766 7.52812L17.4719 6.42344L16.7906 7.10469C16.6653 7.23011 16.5011 7.30919 16.3249 7.32892C16.1487 7.34866 15.971 7.30788 15.8211 7.21328C15.2273 6.83807 14.574 6.56674 13.8891 6.41094C13.7163 6.3716 13.562 6.27471 13.4516 6.13616C13.3411 5.9976 13.2811 5.82562 13.2812 5.64844V4.6875H11.7188V5.64844C11.7189 5.82562 11.6589 5.9976 11.5484 6.13616C11.438 6.27471 11.2837 6.3716 11.1109 6.41094C10.426 6.56674 9.77269 6.83807 9.17891 7.21328C9.02896 7.30788 8.8513 7.34866 8.67511 7.32892C8.49892 7.30919 8.33468 7.23011 8.20938 7.10469L7.52812 6.42344L6.42344 7.52812L7.10469 8.20938C7.23011 8.33468 7.30919 8.49892 7.32892 8.67511C7.34866 8.8513 7.30788 9.02896 7.21328 9.17891C6.83807 9.77269 6.56674 10.426 6.41094 11.1109C6.3716 11.2837 6.27471 11.438 6.13616 11.5484C5.9976 11.6589 5.82562 11.7189 5.64844 11.7188H4.6875V13.2812H5.64844C5.82562 13.2811 5.9976 13.3411 6.13616 13.4516C6.27471 13.562 6.3716 13.7163 6.41094 13.8891C6.56674 14.574 6.83807 15.2273 7.21328 15.8211C7.30788 15.971 7.34866 16.1487 7.32892 16.3249C7.30919 16.5011 7.23011 16.6653 7.10469 16.7906L6.42344 17.4719L7.52812 18.5766L8.20938 17.8953C8.33468 17.7699 8.49892 17.6908 8.67511 17.6711C8.8513 17.6513 9.02896 17.6921 9.17891 17.7867C9.77269 18.1619 10.426 18.4333 11.1109 18.5891C11.2837 18.6284 11.438 18.7253 11.5484 18.8638C11.6589 19.0024 11.7189 19.1744 11.7188 19.3516V20.3125Z" fill="#291953"/>
<path d="M12.5 16.4063C11.7274 16.4063 10.9722 16.1772 10.3298 15.7479C9.68743 15.3187 9.18675 14.7086 8.8911 13.9949C8.59544 13.2811 8.51809 12.4957 8.66881 11.7379C8.81953 10.9802 9.19157 10.2842 9.73787 9.73787C10.2842 9.19157 10.9802 8.81953 11.7379 8.66881C12.4957 8.51809 13.2811 8.59544 13.9949 8.8911C14.7086 9.18675 15.3187 9.68743 15.7479 10.3298C16.1772 10.9722 16.4063 11.7274 16.4063 12.5C16.405 13.5356 15.9931 14.5285 15.2608 15.2608C14.5285 15.9931 13.5356 16.405 12.5 16.4063ZM12.5 10.1563C12.0365 10.1563 11.5833 10.2937 11.1979 10.5512C10.8125 10.8088 10.5121 11.1748 10.3347 11.6031C10.1573 12.0314 10.1109 12.5026 10.2013 12.9572C10.2917 13.4119 10.5149 13.8295 10.8427 14.1573C11.1705 14.4851 11.5881 14.7083 12.0428 14.7987C12.4974 14.8892 12.9687 14.8427 13.3969 14.6653C13.8252 14.488 14.1912 14.1875 14.4488 13.8021C14.7063 13.4167 14.8438 12.9636 14.8438 12.5C14.8438 11.8784 14.5968 11.2823 14.1573 10.8427C13.7177 10.4032 13.1216 10.1563 12.5 10.1563Z" fill="#291953"/>
<path d="M35.1563 39.0625C33.4566 39.0625 31.7951 38.5585 30.3818 37.6142C28.9686 36.6699 27.8671 35.3277 27.2167 33.7574C26.5662 32.1871 26.396 30.4592 26.7276 28.7922C27.0592 27.1252 27.8777 25.5939 29.0796 24.3921C30.2814 23.1902 31.8127 22.3717 33.4797 22.0401C35.1467 21.7085 36.8746 21.8787 38.4449 22.5292C40.0152 23.1796 41.3574 24.2811 42.3017 25.6943C43.246 27.1076 43.75 28.7691 43.75 30.4688C43.7473 32.7471 42.841 34.9314 41.23 36.5425C39.6189 38.1535 37.4346 39.0598 35.1563 39.0625ZM35.1563 23.4375C33.7656 23.4375 32.4062 23.8499 31.2499 24.6225C30.0936 25.3951 29.1924 26.4932 28.6602 27.778C28.128 29.0628 27.9888 30.4766 28.2601 31.8405C28.5314 33.2044 29.2011 34.4573 30.1844 35.4406C31.1677 36.4239 32.4206 37.0936 33.7845 37.3649C35.1485 37.6362 36.5622 37.497 37.847 36.9648C39.1318 36.4326 40.2299 35.5314 41.0025 34.3751C41.7751 33.2188 42.1875 31.8594 42.1875 30.4688C42.1852 28.6046 41.4437 26.8175 40.1256 25.4994C38.8075 24.1813 37.0204 23.4398 35.1563 23.4375Z" fill="#291953"/>
<path d="M33.5936 35.9375C33.3864 35.9374 33.1877 35.8551 33.0412 35.7085L29.135 31.8023C28.9885 31.6558 28.9062 31.4571 28.9062 31.25C28.9062 31.0428 28.9885 30.8441 29.135 30.6976L31.4787 28.3539C31.6252 28.2074 31.8239 28.1251 32.0311 28.1251C32.2382 28.1251 32.4369 28.2074 32.5834 28.3539L33.5936 29.364L37.7287 25.2289C37.8752 25.0824 38.0739 25.0001 38.2811 25.0001C38.4882 25.0001 38.6869 25.0824 38.8334 25.2289L41.1772 27.5726C41.3236 27.7191 41.4059 27.9178 41.4059 28.125C41.4059 28.3321 41.3236 28.5308 41.1772 28.6773L34.1459 35.7085C33.9994 35.8551 33.8008 35.9374 33.5936 35.9375ZM30.792 31.25L33.5936 34.0515L39.5201 28.125L38.2811 26.8859L34.1459 31.021C33.9994 31.1675 33.8007 31.2498 33.5936 31.2498C33.3864 31.2498 33.1877 31.1675 33.0412 31.021L32.0311 30.0109L30.792 31.25Z" fill="#291953"/>
</g>
<defs>
<clipPath id="clip0_135_222">
<rect width="50" height="50" fill="white"/>
</clipPath>
</defs>
</svg>
