<svg width="50" height="50" viewBox="0 0 50 50" fill="none" xmlns="http://www.w3.org/2000/svg">
<g clip-path="url(#clip0_135_240)">
<path d="M49.5667 36.3789L44.4417 33.8164L41.1799 25.332C41.1415 25.2317 41.0829 25.1404 41.0076 25.0638C40.9323 24.9871 40.8421 24.9269 40.7424 24.8867L20.5041 16.7969C20.3626 16.7405 20.2078 16.7268 20.0585 16.7573C19.9093 16.7879 19.7723 16.8613 19.6643 16.9687L16.9651 19.668C16.8591 19.776 16.7868 19.9126 16.757 20.061C16.7272 20.2094 16.7411 20.3633 16.7971 20.5039L24.887 40.7422C24.9271 40.8418 24.9874 40.9321 25.064 41.0073C25.1406 41.0826 25.232 41.1413 25.3323 41.1797L33.8166 44.4414L36.3791 49.5664C36.4331 49.6794 36.5134 49.7778 36.6134 49.8532C36.7133 49.9287 36.8299 49.979 36.9534 50C36.9949 50.0038 37.0368 50.0038 37.0784 50C37.2852 49.9991 37.4833 49.9162 37.6292 49.7695L49.7698 37.6289C49.8591 37.5427 49.9266 37.4364 49.9667 37.3189C50.0068 37.2013 50.0183 37.076 50.0002 36.9531C49.9793 36.8297 49.9289 36.713 49.8535 36.6131C49.778 36.5132 49.6797 36.4328 49.5667 36.3789ZM18.4338 20.4023L18.8674 19.9726L28.9416 30.0469C28.2777 30.9876 27.991 32.1433 28.1381 33.2853C28.2853 34.4274 28.8556 35.4726 29.7363 36.2144C30.617 36.9562 31.744 37.3405 32.8944 37.2913C34.0448 37.2421 35.1349 36.7631 35.9491 35.9489C36.7633 35.1347 37.2424 34.0446 37.2915 32.8941C37.3407 31.7437 36.9564 30.6167 36.2146 29.736C35.4729 28.8553 34.4276 28.285 33.2856 28.1379C32.1436 27.9907 30.9879 28.2775 30.0471 28.9414L19.9729 18.8672L20.4026 18.4336L39.844 26.2109L42.9104 34.1875L34.1877 42.9101L26.2112 39.8437L18.4338 20.4023ZM32.6956 29.6601C33.3977 29.6612 34.0778 29.9056 34.6199 30.3518C35.162 30.7981 35.5327 31.4184 35.6687 32.1073C35.8047 32.7961 35.6977 33.5108 35.3659 34.1296C35.0341 34.7484 34.498 35.233 33.849 35.5009C33.1999 35.7688 32.4781 35.8033 31.8065 35.5987C31.1348 35.3941 30.5549 34.9629 30.1654 34.3786C29.776 33.7943 29.6012 33.0931 29.6708 32.3945C29.7404 31.6958 30.0501 31.0428 30.5471 30.5469C31.1175 29.9783 31.8902 29.6594 32.6956 29.6601ZM37.2932 47.8984L35.3401 43.9922L43.9846 35.3476L47.8909 37.3008L37.2932 47.8984Z" fill="#291953"/>
<path d="M14.9412 41.7969C14.7918 41.6557 14.5941 41.577 14.3885 41.577C14.1829 41.577 13.9852 41.6557 13.8358 41.7969L12.8436 42.7891C10.1959 39.1955 8.73519 34.8655 8.66517 30.4024C8.59515 25.9393 9.91926 21.5655 12.453 17.8907C13.2121 18.3084 14.0861 18.4688 14.944 18.348C15.802 18.2271 16.5977 17.8315 17.2119 17.2204C17.8261 16.6093 18.2257 15.8156 18.3509 14.9582C18.476 14.1009 18.32 13.2261 17.9061 12.4649C21.5809 9.93118 25.9547 8.60706 30.4178 8.67708C34.8809 8.7471 39.211 10.2078 42.8045 12.8555L41.7967 13.836C41.6514 13.9825 41.57 14.1804 41.5702 14.3868C41.5696 14.4896 41.5893 14.5915 41.6281 14.6867C41.667 14.7819 41.7243 14.8684 41.7967 14.9414L45.242 18.3594C45.3884 18.5049 45.5864 18.5866 45.7928 18.5866C45.9992 18.5866 46.1972 18.5049 46.3436 18.3594L49.7694 14.9336C49.842 14.8611 49.8996 14.7749 49.9389 14.6801C49.9783 14.5852 49.9985 14.4836 49.9985 14.3809C49.9985 14.2782 49.9783 14.1766 49.9389 14.0817C49.8996 13.9869 49.842 13.9007 49.7694 13.8282L46.3436 10.4024C46.1972 10.2569 45.9992 10.1752 45.7928 10.1752C45.5864 10.1752 45.3884 10.2569 45.242 10.4024L43.9178 11.7188C40.6542 9.26291 36.7957 7.71995 32.7385 7.24833C28.6814 6.77671 24.5718 7.39345 20.8319 9.03519L25.3358 4.54301C25.8465 4.78702 26.4271 4.84226 26.9746 4.69891C27.5221 4.55557 28.0012 4.22291 28.3268 3.75996C28.6524 3.297 28.8035 2.73369 28.7532 2.16994C28.703 1.60619 28.4547 1.07845 28.0524 0.680357C27.6501 0.282262 27.1197 0.0395425 26.5555 -0.00474103C25.9912 -0.0490246 25.4296 0.10799 24.9701 0.438449C24.5106 0.768907 24.183 1.25144 24.0454 1.80046C23.9079 2.34947 23.9692 2.92946 24.2186 3.43754L16.617 11.0508C15.8452 10.5331 14.9176 10.2994 13.9926 10.3897C13.0676 10.4799 12.2027 10.8885 11.5455 11.5457C10.8883 12.2029 10.4797 13.0678 10.3895 13.9928C10.2992 14.9178 10.5329 15.8454 11.0506 16.6172L3.43734 24.2188C2.92727 23.9702 2.34561 23.9106 1.7957 24.0504C1.2458 24.1902 0.763269 24.5205 0.433862 24.9825C0.104455 25.4444 -0.0504968 26.0083 -0.00345961 26.5737C0.0435776 27.1392 0.289558 27.6696 0.690771 28.0708C1.09198 28.472 1.62245 28.718 2.18789 28.7651C2.75334 28.8121 3.31715 28.6571 3.77914 28.3277C4.24114 27.9983 4.57138 27.5158 4.7112 26.9659C4.85102 26.416 4.79135 25.8343 4.54281 25.3243L9.04671 20.8321C7.40333 24.571 6.78465 28.68 7.2542 32.7371C7.72375 36.7942 9.26462 40.6533 11.7186 43.918L10.3983 45.2422C10.2528 45.3886 10.1711 45.5866 10.1711 45.793C10.1711 45.9994 10.2528 46.1974 10.3983 46.3438L13.8241 49.7696C13.9699 49.9163 14.168 49.9992 14.3748 50C14.4779 50.0001 14.58 49.9798 14.6752 49.9402C14.7704 49.9007 14.8568 49.8427 14.9295 49.7696L18.3592 46.3438C18.5047 46.1974 18.5864 45.9994 18.5864 45.793C18.5864 45.5866 18.5047 45.3886 18.3592 45.2422L14.9412 41.7969ZM45.8006 12.0508L48.1209 14.3711L45.8006 16.6914L43.4803 14.3711L45.8006 12.0508ZM25.7811 1.80863C25.8972 1.69159 26.0454 1.61168 26.207 1.57902C26.3686 1.54637 26.5362 1.56245 26.6887 1.62523C26.8411 1.688 26.9714 1.79464 27.0631 1.93161C27.1549 2.06859 27.2038 2.22972 27.2038 2.39457C27.2038 2.55942 27.1549 2.72055 27.0631 2.85752C26.9714 2.9945 26.8411 3.10114 26.6887 3.16391C26.5362 3.22669 26.3686 3.24277 26.207 3.21011C26.0454 3.17746 25.8972 3.09754 25.7811 2.98051C25.7041 2.90359 25.643 2.81226 25.6013 2.71172C25.5596 2.61118 25.5382 2.50341 25.5382 2.39457C25.5382 2.28573 25.5596 2.17796 25.6013 2.07742C25.643 1.97688 25.7041 1.88554 25.7811 1.80863ZM12.6561 12.6563C12.8829 12.4283 13.1526 12.2475 13.4496 12.124C13.7465 12.0006 14.065 11.9371 14.3866 11.9371C14.7082 11.9371 15.0266 12.0006 15.3235 12.124C15.6205 12.2475 15.8902 12.4283 16.117 12.6563C16.4599 12.9987 16.6936 13.4351 16.7884 13.9103C16.8833 14.3855 16.835 14.8781 16.6497 15.3259C16.4645 15.7737 16.1505 16.1564 15.7477 16.4257C15.3448 16.695 14.8711 16.8388 14.3866 16.8388C13.902 16.8388 13.4283 16.695 13.0254 16.4257C12.6226 16.1564 12.3087 15.7737 12.1234 15.3259C11.9381 14.8781 11.8899 14.3855 11.9847 13.9103C12.0795 13.4351 12.3132 12.9987 12.6561 12.6563ZM2.98421 26.9532C2.82472 27.0862 2.62125 27.1547 2.41378 27.1453C2.20631 27.136 2.00985 27.0494 1.863 26.9025C1.71615 26.7557 1.62953 26.5592 1.62015 26.3517C1.61078 26.1443 1.67933 25.9408 1.81234 25.7813C1.96867 25.6277 2.17909 25.5416 2.39828 25.5416C2.61746 25.5416 2.82788 25.6277 2.98421 25.7813C3.06122 25.8582 3.12231 25.9495 3.164 26.0501C3.20568 26.1506 3.22713 26.2584 3.22713 26.3672C3.22713 26.4761 3.20568 26.5838 3.164 26.6844C3.12231 26.7849 3.06122 26.8763 2.98421 26.9532ZM14.3866 48.0977L12.0662 45.7774L14.3866 43.4571L16.7069 45.7774L14.3866 48.0977Z" fill="#291953"/>
</g>
<defs>
<clipPath id="clip0_135_240">
<rect width="50" height="50" fill="white"/>
</clipPath>
</defs>
</svg>
